{
	"asset":{
		"generator":"Khronos glTF Blender I/O v4.0.44",
		"version":"2.0"
	},
	"scene":0,
	"scenes":[
		{
			"name":"Scene",
			"nodes":[
				2
			]
		}
	],
	"nodes":[
		{
			"mesh":0,
			"name":"Lid",
			"translation":[
				0.01227565947920084,
				0.6462889313697815,
				-0.00978188868612051
			]
		},
		{
			"mesh":1,
			"name":"Wheels",
			"translation":[
				0,
				-0.5557471513748169,
				0.16009122133255005
			]
		},
		{
			"children":[
				0,
				1
			],
			"mesh":2,
			"name":"Kliko",
			"rotation":[
				-0.039461418986320496,
				0,
				0,
				0.9992210865020752
			],
			"translation":[
				0,
				0.6156866550445557,
				0.048705559223890305
			]
		}
	],
	"animations":[
		{
			"channels":[
				{
					"sampler":0,
					"target":{
						"node":1,
						"path":"rotation"
					}
				}
			],
			"name":"roll-loop",
			"samplers":[
				{
					"input":20,
					"interpolation":"LINEAR",
					"output":21
				}
			]
		}
	],
	"materials":[
		{
			"doubleSided":true,
			"name":"Plastic",
			"pbrMetallicRoughness":{
				"baseColorFactor":[
					0.04046649485826492,
					0.04046649485826492,
					0.04046649485826492,
					1
				],
				"metallicFactor":0
			}
		},
		{
			"doubleSided":true,
			"name":"Rubber",
			"pbrMetallicRoughness":{
				"baseColorFactor":[
					0.07718156278133392,
					0.07718156278133392,
					0.07718156278133392,
					1
				],
				"metallicFactor":0
			}
		},
		{
			"doubleSided":true,
			"name":"Steel",
			"pbrMetallicRoughness":{
				"baseColorFactor":[
					0.800000011920929,
					0.800000011920929,
					0.800000011920929,
					1
				],
				"roughnessFactor":0
			}
		},
		{
			"doubleSided":true,
			"name":"Texture",
			"pbrMetallicRoughness":{
				"baseColorTexture":{
					"index":0
				},
				"metallicFactor":0,
				"roughnessFactor":0.5
			}
		}
	],
	"meshes":[
		{
			"name":"Cube.001",
			"primitives":[
				{
					"attributes":{
						"POSITION":0,
						"NORMAL":1,
						"TEXCOORD_0":2
					},
					"indices":3,
					"material":0
				}
			]
		},
		{
			"name":"Cylinder",
			"primitives":[
				{
					"attributes":{
						"POSITION":4,
						"NORMAL":5,
						"TEXCOORD_0":6
					},
					"indices":7,
					"material":1
				},
				{
					"attributes":{
						"POSITION":8,
						"NORMAL":9,
						"TEXCOORD_0":10
					},
					"indices":11,
					"material":2
				}
			]
		},
		{
			"name":"Cube",
			"primitives":[
				{
					"attributes":{
						"POSITION":12,
						"NORMAL":13,
						"TEXCOORD_0":14
					},
					"indices":15,
					"material":0
				},
				{
					"attributes":{
						"POSITION":16,
						"NORMAL":17,
						"TEXCOORD_0":18
					},
					"indices":19,
					"material":3
				}
			]
		}
	],
	"textures":[
		{
			"sampler":0,
			"source":0
		}
	],
	"images":[
		{
			"mimeType":"image/png",
			"name":"texture",
			"uri":"texture.png"
		}
	],
	"accessors":[
		{
			"bufferView":0,
			"componentType":5126,
			"count":40,
			"max":[
				0.2472793608903885,
				0.023700200021266937,
				0.28707441687583923
			],
			"min":[
				-0.2667812407016754,
				-0.02797256037592888,
				-0.3121689260005951
			],
			"type":"VEC3"
		},
		{
			"bufferView":1,
			"componentType":5126,
			"count":40,
			"type":"VEC3"
		},
		{
			"bufferView":2,
			"componentType":5126,
			"count":40,
			"type":"VEC2"
		},
		{
			"bufferView":3,
			"componentType":5123,
			"count":60,
			"type":"SCALAR"
		},
		{
			"bufferView":4,
			"componentType":5126,
			"count":2108,
			"max":[
				0.3297906517982483,
				0.14787325263023376,
				0.1426405906677246
			],
			"min":[
				-0.3297906517982483,
				-0.1385117769241333,
				-0.14374440908432007
			],
			"type":"VEC3"
		},
		{
			"bufferView":5,
			"componentType":5126,
			"count":2108,
			"type":"VEC3"
		},
		{
			"bufferView":6,
			"componentType":5126,
			"count":2108,
			"type":"VEC2"
		},
		{
			"bufferView":7,
			"componentType":5123,
			"count":6528,
			"type":"SCALAR"
		},
		{
			"bufferView":8,
			"componentType":5126,
			"count":140,
			"max":[
				0.25,
				0.016023507341742516,
				0.01602354645729065
			],
			"min":[
				-0.25,
				-0.01602351851761341,
				-0.016023507341742516
			],
			"type":"VEC3"
		},
		{
			"bufferView":9,
			"componentType":5126,
			"count":140,
			"type":"VEC3"
		},
		{
			"bufferView":10,
			"componentType":5126,
			"count":140,
			"type":"VEC2"
		},
		{
			"bufferView":11,
			"componentType":5123,
			"count":408,
			"type":"SCALAR"
		},
		{
			"bufferView":12,
			"componentType":5126,
			"count":618,
			"max":[
				0.2793959975242615,
				0.6201729774475098,
				0.3619662821292877
			],
			"min":[
				-0.2793959677219391,
				-0.566428005695343,
				-0.34618785977363586
			],
			"type":"VEC3"
		},
		{
			"bufferView":13,
			"componentType":5126,
			"count":618,
			"type":"VEC3"
		},
		{
			"bufferView":14,
			"componentType":5126,
			"count":618,
			"type":"VEC2"
		},
		{
			"bufferView":15,
			"componentType":5123,
			"count":1176,
			"type":"SCALAR"
		},
		{
			"bufferView":16,
			"componentType":5126,
			"count":128,
			"max":[
				0.25,
				0.566428005695343,
				0.25
			],
			"min":[
				-0.25,
				-0.44719430804252625,
				-0.2909719944000244
			],
			"type":"VEC3"
		},
		{
			"bufferView":17,
			"componentType":5126,
			"count":128,
			"type":"VEC3"
		},
		{
			"bufferView":18,
			"componentType":5126,
			"count":128,
			"type":"VEC2"
		},
		{
			"bufferView":19,
			"componentType":5123,
			"count":192,
			"type":"SCALAR"
		},
		{
			"bufferView":20,
			"componentType":5126,
			"count":6,
			"max":[
				0.20833333333333334
			],
			"min":[
				0
			],
			"type":"SCALAR"
		},
		{
			"bufferView":21,
			"componentType":5126,
			"count":6,
			"type":"VEC4"
		}
	],
	"bufferViews":[
		{
			"buffer":0,
			"byteLength":480,
			"byteOffset":0,
			"target":34962
		},
		{
			"buffer":0,
			"byteLength":480,
			"byteOffset":480,
			"target":34962
		},
		{
			"buffer":0,
			"byteLength":320,
			"byteOffset":960,
			"target":34962
		},
		{
			"buffer":0,
			"byteLength":120,
			"byteOffset":1280,
			"target":34963
		},
		{
			"buffer":0,
			"byteLength":25296,
			"byteOffset":1400,
			"target":34962
		},
		{
			"buffer":0,
			"byteLength":25296,
			"byteOffset":26696,
			"target":34962
		},
		{
			"buffer":0,
			"byteLength":16864,
			"byteOffset":51992,
			"target":34962
		},
		{
			"buffer":0,
			"byteLength":13056,
			"byteOffset":68856,
			"target":34963
		},
		{
			"buffer":0,
			"byteLength":1680,
			"byteOffset":81912,
			"target":34962
		},
		{
			"buffer":0,
			"byteLength":1680,
			"byteOffset":83592,
			"target":34962
		},
		{
			"buffer":0,
			"byteLength":1120,
			"byteOffset":85272,
			"target":34962
		},
		{
			"buffer":0,
			"byteLength":816,
			"byteOffset":86392,
			"target":34963
		},
		{
			"buffer":0,
			"byteLength":7416,
			"byteOffset":87208,
			"target":34962
		},
		{
			"buffer":0,
			"byteLength":7416,
			"byteOffset":94624,
			"target":34962
		},
		{
			"buffer":0,
			"byteLength":4944,
			"byteOffset":102040,
			"target":34962
		},
		{
			"buffer":0,
			"byteLength":2352,
			"byteOffset":106984,
			"target":34963
		},
		{
			"buffer":0,
			"byteLength":1536,
			"byteOffset":109336,
			"target":34962
		},
		{
			"buffer":0,
			"byteLength":1536,
			"byteOffset":110872,
			"target":34962
		},
		{
			"buffer":0,
			"byteLength":1024,
			"byteOffset":112408,
			"target":34962
		},
		{
			"buffer":0,
			"byteLength":384,
			"byteOffset":113432,
			"target":34963
		},
		{
			"buffer":0,
			"byteLength":24,
			"byteOffset":113816
		},
		{
			"buffer":0,
			"byteLength":96,
			"byteOffset":113840
		}
	],
	"samplers":[
		{
			"magFilter":9729,
			"minFilter":9987
		}
	],
	"buffers":[
		{
			"byteLength":113936,
			"uri":"bin.bin"
		}
	]
}
