<?xml version="1.0" encoding="UTF-8" standalone="no"?>
<!-- Created with Inkscape (http://www.inkscape.org/) -->

<svg
   width="210mm"
   height="150mm"
   viewBox="0 0 210 150"
   version="1.1"
   id="svg1"
   inkscape:version="1.3.2 (1:1.3.2+202311252150+091e20ef0f)"
   sodipodi:docname="wasd keys.svg"
   xmlns:inkscape="http://www.inkscape.org/namespaces/inkscape"
   xmlns:sodipodi="http://sodipodi.sourceforge.net/DTD/sodipodi-0.dtd"
   xmlns="http://www.w3.org/2000/svg"
   xmlns:svg="http://www.w3.org/2000/svg">
  <sodipodi:namedview
     id="namedview1"
     pagecolor="#ffffff"
     bordercolor="#000000"
     borderopacity="0.25"
     inkscape:showpageshadow="2"
     inkscape:pageopacity="0.0"
     inkscape:pagecheckerboard="0"
     inkscape:deskcolor="#d1d1d1"
     inkscape:document-units="mm"
     inkscape:zoom="0.36124088"
     inkscape:cx="70.590017"
     inkscape:cy="471.98423"
     inkscape:window-width="1920"
     inkscape:window-height="1008"
     inkscape:window-x="1920"
     inkscape:window-y="304"
     inkscape:window-maximized="1"
     inkscape:current-layer="layer1" />
  <defs
     id="defs1" />
  <g
     inkscape:label="Layer 1"
     inkscape:groupmode="layer"
     id="layer1">
    <g
       id="g3"
       transform="matrix(1.7158338,0,0,1.7158338,-47.267197,3.5792012)">
      <rect
         style="fill:#999999;stroke:#030000;stroke-width:1.51"
         id="rect1"
         width="36.148033"
         height="36.148033"
         x="29.540073"
         y="41.470432"
         ry="10.241904" />
    </g>
    <rect
       style="fill:#999999;stroke:#030000;stroke-width:2.59091"
       id="rect1-5"
       width="62.024017"
       height="62.024017"
       x="-136.75958"
       y="73.49894"
       ry="17.573406"
       transform="rotate(-90)" />
    <rect
       style="fill:#999999;stroke:#030000;stroke-width:2.59091"
       id="rect1-9"
       width="62.024017"
       height="62.024017"
       x="3.833159"
       y="-135.50171"
       ry="17.573406"
       transform="rotate(90)" />
    <rect
       style="fill:#999999;stroke:#030000;stroke-width:2.59091"
       id="rect1-93"
       width="62.024017"
       height="62.024017"
       x="-205.60324"
       y="-136.44357"
       ry="17.573406"
       transform="scale(-1)" />
    <path
       style="fill:#f9f9f9;stroke:#030000;stroke-width:1.51"
       d="m 81.422794,16.658943 c -3.601922,14.552016 -3.643115,42.816761 8.274476,43.204213 8.789113,0.285743 9.562727,-23.541413 14.37941,-24.379828 4.70203,-0.818455 3.52954,25.043328 15.17035,24.45615 9.30885,-0.46955 11.2844,-35.66068 9.10131,-40.807159 -0.80016,-1.886322 -7.0151,-1.525242 -8.48516,-0.09787 -3.74864,3.639788 3.75986,26.029169 -1.07841,26.661199 -7.52381,0.982844 -4.82542,-28.508236 -14.87595,-28.39708 -8.285969,0.09164 -11.741918,25.995916 -14.434735,27.120478 -6.203448,2.590657 1.062669,-23.083452 -0.229871,-27.358444 -0.553689,-1.83129 -7.361745,-2.258782 -7.82142,-0.401663 z"
       id="path1"
       sodipodi:nodetypes="sssssssssss" />
    <path
       style="fill:#f9f9f9;stroke:#030000;stroke-width:1.51"
       d="m 12.729243,125.50165 c -7.5398782,-14.68242 4.882347,-44.880507 21.38611,-44.659187 17.386013,0.233151 30.630136,32.987197 21.25967,47.633777 -1.289179,2.01506 -5.153736,1.36918 -7.175917,0.0912 -6.302328,-3.98296 -3.060069,-16.30646 -9.34171,-20.32196 -2.840342,-1.81567 -7.273323,-1.79246 -10.113224,0.0239 -5.742011,3.67251 -2.573976,15.39424 -8.619254,18.54267 -2.220521,1.15647 -6.251977,0.91672 -7.395675,-1.3104 z"
       id="path2"
       sodipodi:nodetypes="aaaaaaaa" />
    <path
       style="fill:#999999;stroke:#030000;stroke-width:1.51"
       d="m 31.007005,101.81831 c 1.268076,1.70276 5.119596,1.6161 6.368399,-0.10084 2.086601,-2.868809 0.430023,-10.159178 -3.117329,-10.175361 -3.592699,-0.01639 -5.396958,7.394723 -3.25107,10.276201 z"
       id="path3"
       sodipodi:nodetypes="aaaa" />
    <path
       style="fill:#f9f9f9;stroke:#030000;stroke-width:1.42762"
       d="m 118.83626,91.061676 c 2.97317,-2.375566 5.92094,-6.732167 -5.47062,-8.248661 -7.70724,-1.026021 -22.61414,-4.862066 -29.046361,2.419445 -5.319895,6.022318 -4.851081,18.55617 0.978404,24.0867 6.431244,6.10142 20.340277,-6.60394 26.593077,-0.31978 2.50553,2.51809 2.35151,8.16467 -0.18143,10.65517 -6.17033,6.06696 -19.926913,-6.19991 -25.960128,0.003 -1.404903,1.44452 -1.451995,4.63567 0.16725,6.0428 8.419481,7.31657 27.143688,7.56044 35.290148,0.003 6.2622,-5.80967 4.71524,-18.57599 -1.10947,-24.14003 -6.25659,-5.976587 -22.209495,2.54925 -25.957288,-0.004 -3.482355,-2.3725 -4.282776,-10.194885 -0.417624,-11.856098 5.732339,-2.463715 19.333112,7.430084 25.114072,1.358414 7e-5,-7e-5 -1.1e-4,-2.29e-4 -3e-5,-2.9e-4 z"
       id="path4"
       sodipodi:nodetypes="ssaaaaaaaassass" />
    <path
       style="fill:#f9f9f9;stroke:#030000;stroke-width:1.67997"
       d="m 155.18339,128.77178 c -0.98794,-13.99627 -3.84554,-31.02119 -0.29269,-46.229856 1.15971,-4.96433 27.81324,-4.538029 35.82586,4.129952 8.22186,8.894322 8.10384,26.595584 0.23088,35.780034 -7.73154,9.01948 -35.25482,13.53416 -35.76405,6.31987 z"
       id="path5"
       sodipodi:nodetypes="ssaas" />
    <path
       style="fill:#999999;stroke:#030000;stroke-width:1.10884"
       d="m 162.2174,120.74255 c -0.97081,-9.41907 0.35287,-18.36308 -0.18992,-31.037877 -0.17832,-4.163868 18.04725,-3.046749 23.24642,2.772773 5.33494,5.971483 5.25836,17.855784 0.14981,24.022054 -5.01678,6.05551 -22.6415,9.72304 -23.20631,4.24305 z"
       id="path5-5"
       sodipodi:nodetypes="ssaas" />
  </g>
</svg>
